<svg xmlns="http://www.w3.org/2000/svg" width="1600" height="800" viewBox="0 0 1600 800"><defs><radialGradient id="bbg-light" cx="30%" cy="45%" r="80%"><stop offset="0%" stop-color="#f1ece1"/><stop offset="100%" stop-color="#faf8f3"/></radialGradient></defs><rect width="1600" height="800" fill="url(#bbg-light)"/><circle cx="1256" cy="133" r="2" fill="#ddccaa" opacity="0.5"/><circle cx="231" cy="280" r="2" fill="#ddccaa" opacity="0.5"/><circle cx="402" cy="247" r="1" fill="#ddccaa" opacity="0.5"/><circle cx="1097" cy="370" r="3" fill="#ddccaa" opacity="0.5"/><circle cx="140" cy="105" r="3" fill="#ddccaa" opacity="0.5"/><circle cx="907" cy="220" r="1" fill="#ddccaa" opacity="0.5"/><circle cx="126" cy="747" r="3" fill="#ddccaa" opacity="0.5"/><circle cx="101" cy="54" r="3" fill="#ddccaa" opacity="0.5"/><circle cx="1120" cy="93" r="3" fill="#ddccaa" opacity="0.5"/><circle cx="1127" cy="320" r="1" fill="#ddccaa" opacity="0.5"/><circle cx="1226" cy="639" r="2" fill="#ddccaa" opacity="0.5"/><circle cx="513" cy="538" r="3" fill="#ddccaa" opacity="0.5"/><circle cx="668" cy="609" r="2" fill="#ddccaa" opacity="0.5"/><circle cx="131" cy="244" r="1" fill="#ddccaa" opacity="0.5"/><circle cx="574" cy="595" r="3" fill="#ddccaa" opacity="0.5"/><circle cx="589" cy="238" r="2" fill="#ddccaa" opacity="0.5"/><circle cx="1416" cy="181" r="1" fill="#ddccaa" opacity="0.5"/><circle cx="1495" cy="504" r="2" fill="#ddccaa" opacity="0.5"/><circle cx="1026" cy="215" r="2" fill="#ddccaa" opacity="0.5"/><circle cx="521" cy="482" r="3" fill="#ddccaa" opacity="0.5"/><circle cx="252" cy="265" r="2" fill="#ddccaa" opacity="0.5"/><circle cx="547" cy="188" r="2" fill="#ddccaa" opacity="0.5"/><circle cx="1518" cy="379" r="2" fill="#ddccaa" opacity="0.5"/><circle cx="1501" cy="278" r="3" fill="#ddccaa" opacity="0.5"/><circle cx="96" cy="61" r="2" fill="#ddccaa" opacity="0.5"/><circle cx="287" cy="448" r="1" fill="#ddccaa" opacity="0.5"/><circle cx="498" cy="559" r="2" fill="#ddccaa" opacity="0.5"/><circle cx="345" cy="138" r="1" fill="#ddccaa" opacity="0.5"/><circle cx="644" cy="529" r="3" fill="#ddccaa" opacity="0.5"/><circle cx="1371" cy="356" r="1" fill="#ddccaa" opacity="0.5"/><circle cx="1294" cy="339" r="3" fill="#ddccaa" opacity="0.5"/><circle cx="973" cy="638" r="1" fill="#ddccaa" opacity="0.5"/><circle cx="1504" cy="533" r="3" fill="#ddccaa" opacity="0.5"/><circle cx="967" cy="744" r="1" fill="#ddccaa" opacity="0.5"/><circle cx="1154" cy="119" r="3" fill="#ddccaa" opacity="0.5"/><circle cx="1057" cy="82" r="1" fill="#ddccaa" opacity="0.5"/><circle cx="1172" cy="585" r="2" fill="#ddccaa" opacity="0.5"/><circle cx="1115" cy="60" r="3" fill="#ddccaa" opacity="0.5"/><circle cx="1190" cy="107" r="1" fill="#ddccaa" opacity="0.5"/><circle cx="333" cy="374" r="2" fill="#ddccaa" opacity="0.5"/><circle cx="280" cy="413" r="3" fill="#ddccaa" opacity="0.5"/><circle cx="887" cy="528" r="1" fill="#ddccaa" opacity="0.5"/><circle cx="1306" cy="671" r="3" fill="#ddccaa" opacity="0.5"/><circle cx="105" cy="490" r="3" fill="#ddccaa" opacity="0.5"/><circle cx="1172" cy="337" r="3" fill="#ddccaa" opacity="0.5"/><circle cx="243" cy="292" r="1" fill="#ddccaa" opacity="0.5"/><g transform="translate(105.6,105.6) scale(1.1500)"><path d="M 256 130 L 380 320 Q 256 400 132 320 Z" fill="#b9791f"/><circle cx="196" cy="230" r="66" fill="#faf8f3"/><circle cx="316" cy="230" r="66" fill="#faf8f3"/><rect x="184" y="200" width="24" height="60" rx="6" fill="#8f5c12"/><rect x="304" y="200" width="24" height="60" rx="6" fill="#8f5c12"/><path d="M 240 250 L 220 285 L 256 285 Z" fill="#faf8f3"/></g><text x="760" y="410" font-family="Helvetica Neue, Arial, sans-serif" font-size="128" font-weight="600" letter-spacing="3" fill="#1c1a16">Noesis</text><text x="764" y="470" font-family="Helvetica Neue, Arial, sans-serif" font-size="34" font-weight="400" letter-spacing="1" fill="#6b5f4c">Beyond search. Toward understanding.</text></svg>